<svg id="Facebook_F_icon" xmlns="http://www.w3.org/2000/svg" width="27.009" height="27.009" viewBox="0 0 27.009 27.009">
  <path id="Blue_1_" d="M103.12,31.609a1.487,1.487,0,0,0,1.488-1.488V6.088A1.487,1.487,0,0,0,103.12,4.6H79.088A1.494,1.494,0,0,0,77.6,6.088V30.12a1.487,1.487,0,0,0,1.488,1.488H103.12Z" transform="translate(-77.6 -4.6)" fill="#ad7036"/>
  <path id="f" d="M189.424,66.432V55.972h3.511l.524-4.077h-4.035V49.3c0-1.184.325-1.981,2.023-1.981h2.159V43.657a28.533,28.533,0,0,0-3.144-.157c-3.113,0-5.24,1.9-5.24,5.387v3.008H181.7v4.077h3.522v10.46Z" transform="translate(-170.79 -39.423)" fill="#fff6ec"/>
</svg>
