<svg xmlns="http://www.w3.org/2000/svg" width="2123.549" height="247.971" viewBox="0 0 2123.549 247.971">
  <g id="Groupe_55" data-name="Groupe 55" transform="translate(0.242 0)" opacity="0.05" style="isolation: isolate">
    <path id="Tracé_83" data-name="Tracé 83" d="M107.549,108.86S106.772-4.532,0,.14C0,.14,5.065,107.69,107.549,108.86" transform="translate(209.758 0)" fill="#ad7036"/>
    <path id="Tracé_83-2" data-name="Tracé 83" d="M0,0S.777,113.392,107.549,108.719C107.549,108.719,102.484,1.17,0,0" transform="translate(152.621 75.437) rotate(132)" fill="#ad7036"/>
    <path id="Tracé_83-3" data-name="Tracé 83" d="M107.549,0S106.772,113.392,0,108.72C0,108.72,5.065,1.17,107.549,0" transform="translate(96.758 139.111)" fill="#ad7036"/>
    <path id="Tracé_83-4" data-name="Tracé 83" d="M107.549,108.86S106.772-4.532,0,.14C0,.14,5.065,107.69,107.549,108.86" transform="translate(373.758 0)" fill="#ad7036"/>
    <path id="Tracé_83-5" data-name="Tracé 83" d="M107.549,0S106.772,113.392,0,108.72C0,108.72,5.065,1.17,107.549,0" transform="translate(261.758 139.111)" fill="#ad7036"/>
    <path id="Tracé_83-6" data-name="Tracé 83" d="M107.549,108.86S106.772-4.532,0,.14C0,.14,5.065,107.69,107.549,108.86" transform="translate(537.758 0)" fill="#ad7036"/>
    <path id="Tracé_83-7" data-name="Tracé 83" d="M107.549,0S106.772,113.392,0,108.72C0,108.72,5.065,1.17,107.549,0" transform="translate(427.758 139.111)" fill="#ad7036"/>
    <path id="Tracé_83-8" data-name="Tracé 83" d="M107.549,108.86S106.772-4.532,0,.14C0,.14,5.065,107.69,107.549,108.86" transform="translate(701.758 0)" fill="#ad7036"/>
    <path id="Tracé_83-9" data-name="Tracé 83" d="M107.549,0S106.772,113.392,0,108.72C0,108.72,5.065,1.17,107.549,0" transform="translate(592.758 139.111)" fill="#ad7036"/>
    <path id="Tracé_83-10" data-name="Tracé 83" d="M107.549,108.86S106.772-4.532,0,.14C0,.14,5.065,107.69,107.549,108.86" transform="translate(866.758 0)" fill="#ad7036"/>
    <path id="Tracé_107" data-name="Tracé 107" d="M107.549,108.86S106.772-4.532,0,.14C0,.14,5.065,107.69,107.549,108.86" transform="translate(1522.758 0)" fill="#ad7036"/>
    <path id="Tracé_83-11" data-name="Tracé 83" d="M107.549,0S106.772,113.392,0,108.72C0,108.72,5.065,1.17,107.549,0" transform="translate(758.758 139.111)" fill="#ad7036"/>
    <path id="Tracé_108" data-name="Tracé 108" d="M107.549,0S106.772,113.392,0,108.72C0,108.72,5.065,1.17,107.549,0" transform="translate(1420.758 139.111)" fill="#ad7036"/>
    <path id="Tracé_83-12" data-name="Tracé 83" d="M107.549,108.86S106.772-4.532,0,.14C0,.14,5.065,107.69,107.549,108.86" transform="translate(1030.758 0)" fill="#ad7036"/>
    <path id="Tracé_104" data-name="Tracé 104" d="M107.549,108.86S106.772-4.532,0,.14C0,.14,5.065,107.69,107.549,108.86" transform="translate(1687.758 0)" fill="#ad7036"/>
    <path id="Tracé_83-13" data-name="Tracé 83" d="M107.549,0S106.772,113.392,0,108.72C0,108.72,5.065,1.17,107.549,0" transform="translate(923.758 139.111)" fill="#ad7036"/>
    <path id="Tracé_106" data-name="Tracé 106" d="M107.549,0S106.772,113.392,0,108.72C0,108.72,5.065,1.17,107.549,0" transform="translate(1586.758 139.111)" fill="#ad7036"/>
    <path id="Tracé_83-14" data-name="Tracé 83" d="M107.549,108.86S106.772-4.532,0,.14C0,.14,5.065,107.69,107.549,108.86" transform="translate(1194.758 0)" fill="#ad7036"/>
    <path id="Tracé_103" data-name="Tracé 103" d="M107.549,108.86S106.772-4.532,0,.14C0,.14,5.065,107.69,107.549,108.86" transform="translate(1851.758 0)" fill="#ad7036"/>
    <path id="Tracé_83-15" data-name="Tracé 83" d="M107.549,0S106.772,113.392,0,108.72C0,108.72,5.065,1.17,107.549,0" transform="translate(1089.758 139.111)" fill="#ad7036"/>
    <path id="Tracé_105" data-name="Tracé 105" d="M107.549,0S106.772,113.392,0,108.72C0,108.72,5.065,1.17,107.549,0" transform="translate(1751.758 139.111)" fill="#ad7036"/>
    <path id="Tracé_83-16" data-name="Tracé 83" d="M107.549,108.86S106.772-4.532,0,.14C0,.14,5.065,107.69,107.549,108.86" transform="translate(1358.758 0)" fill="#ad7036"/>
    <path id="Tracé_102" data-name="Tracé 102" d="M107.549,108.86S106.772-4.532,0,.14C0,.14,5.065,107.69,107.549,108.86" transform="translate(2015.758 0)" fill="#ad7036"/>
    <path id="Tracé_83-17" data-name="Tracé 83" d="M107.549,0S106.772,113.392,0,108.72C0,108.72,5.065,1.17,107.549,0" transform="translate(1255.758 139.111)" fill="#ad7036"/>
    <path id="Tracé_101" data-name="Tracé 101" d="M107.549,0S106.772,113.392,0,108.72C0,108.72,5.065,1.17,107.549,0" transform="translate(1917.758 139.111)" fill="#ad7036"/>
  </g>
</svg>
