<svg xmlns="http://www.w3.org/2000/svg" width="258" height="90.223" viewBox="0 0 258 90.223">
  <g id="logo-grand-lyon-la-metropole" transform="translate(-28.35 -32.6)">
    <g id="GRAND" transform="translate(107.048 90.069)">
      <path id="Tracé_118" data-name="Tracé 118" d="M286.717,220.622a.183.183,0,0,1,.183.183v1.241c0,5.832-2.662,8.333-6.832,8.333s-6.938-2.5-6.938-8.333v-2.231c0-5.967,2.8-8.465,6.938-8.465,3.694,0,6.07,2.019,6.716,5.781a.184.184,0,0,1-.18.215h-2.652a.185.185,0,0,1-.177-.141c-.479-2.058-1.656-3.138-3.707-3.138-2.476,0-3.819,1.614-3.819,5.617v2.366c0,4.006,1.344,5.617,3.819,5.617s3.537-1.382,3.762-4.276a.05.05,0,0,0-.045-.051h-3.453a.183.183,0,0,1-.183-.183v-2.35a.183.183,0,0,1,.183-.183Z" transform="translate(-273.13 -211.35)" fill="#ad7036"/>
      <path id="Tracé_119" data-name="Tracé 119" d="M334.414,230.563l-3.5-7.375s-.022-.026-.042-.026h-3.52a.044.044,0,0,0-.045.045v7.276a.183.183,0,0,1-.183.183h-2.746a.183.183,0,0,1-.183-.183v-18.13a.183.183,0,0,1,.183-.183h6.121c4.263,0,6.813,1.849,6.813,5.52A4.827,4.827,0,0,1,334,222.632a.044.044,0,0,0-.026.061l3.791,7.706a.182.182,0,0,1-.164.264h-3.025a.183.183,0,0,1-.164-.1Zm-4.135-10.082c2.63,0,3.916-.7,3.916-2.787s-1.286-2.813-3.916-2.813h-2.932a.044.044,0,0,0-.045.045v5.511a.044.044,0,0,0,.045.045Z" transform="translate(-307.774 -211.906)" fill="#ad7036"/>
      <path id="Tracé_120" data-name="Tracé 120" d="M373.587,230.432,379.9,212.3a.181.181,0,0,1,.174-.122h2.691a.184.184,0,0,1,.174.122l6.311,18.13a.182.182,0,0,1-.174.241h-2.91a.187.187,0,0,1-.174-.125l-1.209-3.675a.044.044,0,0,0-.042-.032h-6.613a.042.042,0,0,0-.042.032l-1.209,3.675a.184.184,0,0,1-.174.125h-2.939a.183.183,0,0,1-.174-.241Zm5.424-6.269h4.81a.045.045,0,0,0,.042-.061l-2.4-7.288a.046.046,0,0,0-.087,0l-2.4,7.288a.047.047,0,0,0,.042.061Z" transform="translate(-341.286 -211.913)" fill="#ad7036"/>
      <path id="Tracé_121" data-name="Tracé 121" d="M442.844,212.363v18.13a.183.183,0,0,1-.183.183h-2.476a.182.182,0,0,1-.158-.09l-7.4-12.339a.045.045,0,0,0-.084.022v12.224a.183.183,0,0,1-.183.183h-2.64a.183.183,0,0,1-.183-.183v-18.13a.183.183,0,0,1,.183-.183h2.4a.182.182,0,0,1,.158.09l7.478,12.5a.045.045,0,0,0,.084-.023V212.363a.183.183,0,0,1,.183-.183h2.64A.183.183,0,0,1,442.844,212.363Z" transform="translate(-379.254 -211.913)" fill="#ad7036"/>
      <path id="Tracé_122" data-name="Tracé 122" d="M479.37,230.493v-18.13a.183.183,0,0,1,.183-.183h6.067c4.157,0,6.944,2.225,6.944,8.147v2.2c0,5.922-2.791,8.147-6.944,8.147h-6.067a.183.183,0,0,1-.183-.183Zm10.082-7.967v-2.2c0-3.807-1.18-5.44-3.836-5.44h-3.093a.044.044,0,0,0-.045.045v13.014a.044.044,0,0,0,.045.045h3.093c2.656,0,3.836-1.662,3.836-5.469Z" transform="translate(-413.063 -211.913)" fill="#ad7036"/>
    </g>
    <g id="METROPOLE" transform="translate(28.35 32.6)">
      <rect id="Rectangle_98" data-name="Rectangle 98" width="174.605" height="46.48" transform="translate(0 0)" fill="#ad7036"/>
      <g id="Groupe_93" data-name="Groupe 93" transform="translate(13.985 10.963)">
        <path id="Tracé_123" data-name="Tracé 123" d="M81.035,85.424l4.893-9.208a.179.179,0,0,1,.161-.1h3.861a.183.183,0,0,1,.183.183v18.13a.183.183,0,0,1-.183.183H86.134a.183.183,0,0,1-.183-.183V84.35a.045.045,0,0,0-.087-.019L82.2,91.462a.182.182,0,0,1-.161.1H79.871a.187.187,0,0,1-.164-.1L76.12,84.415a.046.046,0,0,0-.087.019v10a.183.183,0,0,1-.183.183H72.033a.183.183,0,0,1-.183-.183V76.306a.183.183,0,0,1,.183-.183h3.836a.185.185,0,0,1,.161.1l4.919,9.208a.046.046,0,0,0,.08,0Z" transform="translate(-71.85 -73.091)" fill="#fff"/>
        <path id="Tracé_124" data-name="Tracé 124" d="M141.94,73.474V76.76a.044.044,0,0,0,.045.045h6.205a.18.18,0,0,1,.18.18v3.337a.185.185,0,0,1-.183.183h-6.2a.044.044,0,0,0-.045.045v3.929a.044.044,0,0,0,.045.045h7.009a.18.18,0,0,1,.18.18v3.337a.185.185,0,0,1-.183.183H137.67a.18.18,0,0,1-.18-.18V69.912a.185.185,0,0,1,.183-.183h2.4a.045.045,0,0,0,.039-.023l1.736-2.922A.191.191,0,0,1,142,66.7h4.507a.183.183,0,0,1,.145.3l-1.939,2.659a.047.047,0,0,0,.035.074h4.237a.18.18,0,0,1,.18.18v3.337a.185.185,0,0,1-.183.183h-7.006a.044.044,0,0,0-.045.045Z" transform="translate(-116.387 -66.7)" fill="#fff"/>
        <path id="Tracé_125" data-name="Tracé 125" d="M196.661,76.3v3.334a.183.183,0,0,1-.183.183h-4.6a.044.044,0,0,0-.045.045V94.433a.183.183,0,0,1-.183.183h-4.083a.183.183,0,0,1-.183-.183V79.866a.044.044,0,0,0-.045-.045h-4.6a.183.183,0,0,1-.183-.183V76.3a.183.183,0,0,1,.183-.183h13.735a.183.183,0,0,1,.183.183Z" transform="translate(-146.966 -73.091)" fill="#fff"/>
        <path id="Tracé_126" data-name="Tracé 126" d="M245,94.5l-3.022-6.861a.043.043,0,0,0-.042-.026H239.7a.044.044,0,0,0-.045.045v6.768a.183.183,0,0,1-.183.183h-4.083a.183.183,0,0,1-.183-.183V76.293a.183.183,0,0,1,.183-.183h6.787c4.263,0,7,1.958,7,5.816a4.98,4.98,0,0,1-2.906,4.887.047.047,0,0,0-.023.061l3.556,7.472a.182.182,0,0,1-.164.26h-4.472A.182.182,0,0,1,245,94.5Zm-3.356-10.584c1.8,0,3.083-.241,3.083-1.984s-1.286-2.119-3.083-2.119H239.7a.044.044,0,0,0-.045.045v4.009a.044.044,0,0,0,.045.045h1.939Z" transform="translate(-182.689 -73.085)" fill="#fff"/>
        <path id="Tracé_127" data-name="Tracé 127" d="M294.242,94.327c-4.208,0-7.292-2.546-7.292-8.067V83.367c0-5.575,3.083-8.067,7.292-8.067s7.292,2.492,7.292,8.067V86.26C301.533,91.78,298.45,94.327,294.242,94.327ZM291.4,86.26c0,3.029.99,4.369,2.842,4.369s2.842-1.341,2.842-4.369V83.367c0-3.029-.99-4.369-2.842-4.369s-2.842,1.341-2.842,4.369Z" transform="translate(-217.795 -72.535)" fill="#fff"/>
        <path id="Tracé_128" data-name="Tracé 128" d="M345.3,88.414v6.019a.183.183,0,0,1-.183.183h-4.083a.183.183,0,0,1-.183-.183V76.3a.183.183,0,0,1,.183-.183h6.787c4.263,0,7,1.878,7,6s-2.707,6.244-7,6.244h-2.472a.044.044,0,0,0-.045.045Zm1.717-3.746c2.331,0,3.35-.7,3.35-2.546,0-1.5-1.019-2.305-3.35-2.305h-1.669a.044.044,0,0,0-.045.045v4.761a.044.044,0,0,0,.045.045Z" transform="translate(-254.366 -73.091)" fill="#fff"/>
        <path id="Tracé_129" data-name="Tracé 129" d="M399.622,94.327c-4.208,0-7.292-2.546-7.292-8.067V83.367c0-5.575,3.083-8.067,7.292-8.067s7.292,2.492,7.292,8.067V86.26C406.913,91.78,403.83,94.327,399.622,94.327ZM396.78,86.26c0,3.029.99,4.369,2.842,4.369s2.842-1.341,2.842-4.369V83.367c0-3.029-.99-4.369-2.842-4.369s-2.842,1.341-2.842,4.369Z" transform="translate(-289.295 -72.535)" fill="#fff"/>
        <path id="Tracé_130" data-name="Tracé 130" d="M450.895,90.916H457.9a.183.183,0,0,1,.183.183v3.334a.183.183,0,0,1-.183.183h-11.32a.183.183,0,0,1-.183-.183V76.3a.183.183,0,0,1,.183-.183h4.083a.183.183,0,0,1,.183.183V90.871A.044.044,0,0,0,450.895,90.916Z" transform="translate(-325.981 -73.091)" fill="#fff"/>
        <path id="Tracé_131" data-name="Tracé 131" d="M503.247,76.3v3.334a.183.183,0,0,1-.183.183h-7.009a.044.044,0,0,0-.045.045v3.286a.044.044,0,0,0,.045.045h6.205a.183.183,0,0,1,.183.183v3.334a.183.183,0,0,1-.183.183h-6.205a.044.044,0,0,0-.045.045v3.929a.044.044,0,0,0,.045.045h7.009a.183.183,0,0,1,.183.183v3.334a.183.183,0,0,1-.183.183h-11.32a.183.183,0,0,1-.183-.183V76.3a.183.183,0,0,1,.183-.183h11.32A.183.183,0,0,1,503.247,76.3Z" transform="translate(-356.622 -73.091)" fill="#fff"/>
      </g>
    </g>
    <g id="LYON" transform="translate(200.219 76.344)">
      <rect id="Rectangle_99" data-name="Rectangle 99" width="86.131" height="46.48" fill="#ad7036"/>
      <g id="Groupe_94" data-name="Groupe 94" transform="translate(13.995 13.728)">
        <path id="Tracé_132" data-name="Tracé 132" d="M610.955,226.976h7.009a.183.183,0,0,1,.183.183v3.334a.183.183,0,0,1-.183.183h-11.32a.183.183,0,0,1-.183-.183v-18.13a.183.183,0,0,1,.183-.183h4.083a.183.183,0,0,1,.183.183v14.567a.044.044,0,0,0,.045.045Z" transform="translate(-606.46 -211.916)" fill="#fff"/>
        <path id="Tracé_133" data-name="Tracé 133" d="M641.533,212.3l2.778,6.154a.046.046,0,0,0,.084,0l2.778-6.154a.181.181,0,0,1,.167-.106h4.7a.181.181,0,0,1,.161.267l-5.62,10.819a.063.063,0,0,0-.006.023v7.2a.183.183,0,0,1-.183.183H642.3a.183.183,0,0,1-.183-.183v-7.2a.039.039,0,0,0-.006-.023l-5.62-10.819a.182.182,0,0,1,.161-.267h4.7a.185.185,0,0,1,.167.106Z" transform="translate(-626.824 -211.923)" fill="#fff"/>
        <path id="Tracé_134" data-name="Tracé 134" d="M695.352,230.387c-4.208,0-7.292-2.546-7.292-8.067v-2.894c0-5.575,3.083-8.067,7.292-8.067s7.292,2.492,7.292,8.067v2.894C702.643,227.84,699.56,230.387,695.352,230.387Zm-2.842-8.067c0,3.029.99,4.369,2.842,4.369s2.842-1.341,2.842-4.369v-2.894c0-3.029-.99-4.369-2.842-4.369s-2.842,1.341-2.842,4.369Z" transform="translate(-661.825 -211.36)" fill="#fff"/>
        <path id="Tracé_135" data-name="Tracé 135" d="M756.533,212.363v18.13a.183.183,0,0,1-.183.183h-3.311a.176.176,0,0,1-.151-.08l-6.671-10.031a.046.046,0,0,0-.084.026V230.5a.183.183,0,0,1-.183.183h-3.816a.183.183,0,0,1-.183-.183v-18.13a.183.183,0,0,1,.183-.183h3.257a.184.184,0,0,1,.151.08l6.723,10.166a.046.046,0,0,0,.084-.026V212.363a.183.183,0,0,1,.183-.183h3.816a.183.183,0,0,1,.183.183Z" transform="translate(-698.39 -211.916)" fill="#fff"/>
      </g>
    </g>
  </g>
</svg>
