<svg xmlns="http://www.w3.org/2000/svg" width="519.539" height="83.7" viewBox="0 0 519.539 83.7">
  <g id="Groupe_109" data-name="Groupe 109" opacity="0.05" style="isolation: isolate">
    <path id="Tracé_83" data-name="Tracé 83" d="M36.3,36.744S36.039-1.53,0,.047c0,0,1.71,36.3,36.3,36.7" transform="translate(65.651 0)" fill="#af8d46"/>
    <path id="Tracé_83-2" data-name="Tracé 83" d="M0,0S.262,38.274,36.3,36.7c0,0-1.71-36.3-36.3-36.7" transform="translate(51.597 25.463) rotate(132)" fill="#af8d46"/>
    <path id="Tracé_83-3" data-name="Tracé 83" d="M36.3,0S36.039,38.274,0,36.7C0,36.7,1.71.395,36.3,0" transform="translate(32.506 46.955)" fill="#af8d46"/>
    <path id="Tracé_83-4" data-name="Tracé 83" d="M36.3,36.744S36.039-1.53,0,.047c0,0,1.71,36.3,36.3,36.7" transform="translate(120.892 0)" fill="#af8d46"/>
    <path id="Tracé_83-5" data-name="Tracé 83" d="M36.3,0S36.039,38.274,0,36.7C0,36.7,1.71.395,36.3,0" transform="translate(87.747 46.955)" fill="#af8d46"/>
    <path id="Tracé_83-6" data-name="Tracé 83" d="M36.3,36.744S36.039-1.53,0,.047c0,0,1.71,36.3,36.3,36.7" transform="translate(178.896 0)" fill="#af8d46"/>
    <path id="Tracé_83-7" data-name="Tracé 83" d="M36.3,0S36.039,38.274,0,36.7C0,36.7,1.71.395,36.3,0" transform="translate(145.751 46.955)" fill="#af8d46"/>
    <path id="Tracé_83-8" data-name="Tracé 83" d="M36.3,36.744S36.039-1.53,0,.047c0,0,1.71,36.3,36.3,36.7" transform="translate(234.137 0)" fill="#af8d46"/>
    <path id="Tracé_163" data-name="Tracé 163" d="M36.3,36.744S36.039-1.53,0,.047c0,0,1.71,36.3,36.3,36.7" transform="translate(347.137 0)" fill="#af8d46"/>
    <path id="Tracé_83-9" data-name="Tracé 83" d="M36.3,0S36.039,38.274,0,36.7C0,36.7,1.71.395,36.3,0" transform="translate(200.992 46.955)" fill="#af8d46"/>
    <path id="Tracé_83-10" data-name="Tracé 83" d="M36.3,36.744S36.039-1.53,0,.047c0,0,1.71,36.3,36.3,36.7" transform="translate(292.141 0)" fill="#af8d46"/>
    <path id="Tracé_162" data-name="Tracé 162" d="M36.3,36.744S36.039-1.53,0,.047c0,0,1.71,36.3,36.3,36.7" transform="translate(405.141 0)" fill="#af8d46"/>
    <path id="Tracé_174" data-name="Tracé 174" d="M36.3,36.744S36.039-1.53,0,.047c0,0,1.71,36.3,36.3,36.7" transform="translate(461.141 0)" fill="#af8d46"/>
    <path id="Tracé_83-11" data-name="Tracé 83" d="M36.3,0S36.039,38.274,0,36.7C0,36.7,1.71.395,36.3,0" transform="translate(258.996 46.955)" fill="#af8d46"/>
    <path id="Tracé_164" data-name="Tracé 164" d="M36.3,0S36.039,38.274,0,36.7C0,36.7,1.71.395,36.3,0" transform="translate(371.996 46.955)" fill="#af8d46"/>
    <path id="Tracé_83-12" data-name="Tracé 83" d="M36.3,0S36.039,38.274,0,36.7C0,36.7,1.71.395,36.3,0" transform="translate(314.237 46.955)" fill="#af8d46"/>
    <path id="Tracé_161" data-name="Tracé 161" d="M36.3,0S36.039,38.274,0,36.7C0,36.7,1.71.395,36.3,0" transform="translate(427.237 46.955)" fill="#af8d46"/>
    <path id="Tracé_173" data-name="Tracé 173" d="M36.3,0S36.039,38.274,0,36.7C0,36.7,1.71.395,36.3,0" transform="translate(483.237 46.955)" fill="#af8d46"/>
  </g>
</svg>
