<svg id="Groupe_244" data-name="Groupe 244" xmlns="http://www.w3.org/2000/svg" width="121" height="104.052" viewBox="0 0 121 104.052">
  <path id="Tracé_141" data-name="Tracé 141" d="M19.742,66.915H0V1.843H19.686V5.73a66.621,66.621,0,0,1,5.762-3.412C37.094-3.1,53.651.592,58.89,17.449a44.489,44.489,0,0,1,1.775,13.175c.036,10.062-.125,20.128.131,30.183a32.746,32.746,0,0,0,21.6,29.7,37.787,37.787,0,0,0,15.819,2.066,41.294,41.294,0,0,0,11.1-1.892A29.166,29.166,0,0,0,119.967,83.5,5.086,5.086,0,0,1,121,82.683c-4.662,9.882-11.492,17.394-22.585,19.891-13.122,2.954-25.688,1.751-37.039-6.069A44.81,44.81,0,0,1,41.954,66.135a54.46,54.46,0,0,1-.733-8.541c-.106-8.7-.016-17.392-.12-26.087a16.118,16.118,0,0,0-.924-4.918c-2.364-6.925-9.785-8.005-14.285-5.622a30.746,30.746,0,0,0-5.614,4.447,2.74,2.74,0,0,0-.514,1.853q-.043,18.986-.021,37.973v1.675" transform="translate(0 0)" fill="#fff6ec"/>
  <path id="Tracé_142" data-name="Tracé 142" d="M279.037,151.371,312.1,183.884c-6.717,6.3-20.361,8.019-30.051-.508-10.381-9.135-9.933-24.053-3.008-32.005" transform="translate(-199.145 -110.012)" fill="#fff6ec"/>
</svg>
