<svg id="YouTube_full-color_icon__2017_" data-name="YouTube_full-color_icon_(2017)" xmlns="http://www.w3.org/2000/svg" width="38.647" height="27.009" viewBox="0 0 38.647 27.009">
  <path id="Tracé_139" data-name="Tracé 139" d="M39.025,4.65a4.836,4.836,0,0,0-3.414-3.414C33.375.373,11.715-.05,5.432,1.261A4.836,4.836,0,0,0,2.019,4.675C1.009,9.1.933,18.676,2.043,23.2a4.836,4.836,0,0,0,3.414,3.414c4.428,1.019,25.479,1.163,30.179,0A4.836,4.836,0,0,0,39.05,23.2C40.126,18.379,40.2,9.4,39.025,4.65Z" transform="translate(-1.236 -0.427)" fill="#ad7036"/>
  <path id="Tracé_140" data-name="Tracé 140" d="M74.293,37.388,64.2,31.6V43.177Z" transform="translate(-48.624 -23.889)" fill="#fff6ec"/>
</svg>
