<svg xmlns="http://www.w3.org/2000/svg" width="50.076" height="65.154" viewBox="0 0 50.076 65.154">
  <path id="Tracé_177" data-name="Tracé 177" d="M42.23,0H31.769V2.59a5.231,5.231,0,0,1-10.461,0V0H10.846A7.808,7.808,0,0,0,3,7.769V62.154H21.308v-2.59a5.231,5.231,0,0,1,10.461,0v2.59H50.076V7.769A7.808,7.808,0,0,0,42.23,0ZM36.67,56.975a10.488,10.488,0,0,0-20.264,0H8.231V44.026h7.846v-5.18H8.231V7.769a2.6,2.6,0,0,1,2.615-2.59h5.56a10.488,10.488,0,0,0,20.264,0h5.56a2.6,2.6,0,0,1,2.615,2.59V56.975Z" transform="translate(-1.5 1.5)" fill="#ad7036" stroke="#fff6ec" stroke-width="3"/>
</svg>
