<svg id="Instagram_logo_2016" xmlns="http://www.w3.org/2000/svg" width="27.009" height="27.009" viewBox="0 0 27.009 27.009">
  <path id="Tracé_138" data-name="Tracé 138" d="M31.506,18c-3.668,0-4.128.016-5.568.082a9.91,9.91,0,0,0-3.278.627,6.908,6.908,0,0,0-3.951,3.949,9.864,9.864,0,0,0-.627,3.278c-.064,1.44-.081,1.9-.081,5.569s.016,4.126.082,5.567a9.925,9.925,0,0,0,.627,3.278A6.911,6.911,0,0,0,22.658,44.3a9.919,9.919,0,0,0,3.278.627c1.44.066,1.9.082,5.568.082s4.127-.016,5.567-.082A9.924,9.924,0,0,0,40.35,44.3,6.919,6.919,0,0,0,44.3,40.349a10.009,10.009,0,0,0,.627-3.278c.065-1.44.082-1.9.082-5.567s-.017-4.128-.082-5.568a10,10,0,0,0-.627-3.278,6.909,6.909,0,0,0-3.95-3.949,9.941,9.941,0,0,0-3.28-.627C35.629,18.016,35.17,18,31.5,18Zm-1.211,2.434h1.211c3.606,0,4.033.013,5.457.078a7.477,7.477,0,0,1,2.507.465,4.475,4.475,0,0,1,2.562,2.563,7.462,7.462,0,0,1,.465,2.507c.065,1.424.079,1.851.079,5.455s-.014,4.032-.079,5.455a7.469,7.469,0,0,1-.465,2.507,4.478,4.478,0,0,1-2.562,2.561,7.449,7.449,0,0,1-2.507.465c-1.424.065-1.851.079-5.457.079s-4.033-.014-5.457-.079a7.491,7.491,0,0,1-2.508-.466,4.474,4.474,0,0,1-2.564-2.562,7.462,7.462,0,0,1-.465-2.507c-.065-1.424-.078-1.851-.078-5.457s.013-4.032.078-5.455a7.476,7.476,0,0,1,.465-2.507,4.475,4.475,0,0,1,2.564-2.564,7.46,7.46,0,0,1,2.508-.466c1.246-.056,1.729-.073,4.245-.076Zm8.42,2.242a1.62,1.62,0,1,0,1.621,1.62,1.62,1.62,0,0,0-1.621-1.62Zm-7.209,1.893A6.934,6.934,0,1,0,38.44,31.5a6.935,6.935,0,0,0-6.934-6.935Zm0,2.434A4.5,4.5,0,1,1,27,31.5,4.5,4.5,0,0,1,31.506,27Z" transform="translate(-18 -18)" fill="#ad7036"/>
</svg>
