<svg id="linkedin" xmlns="http://www.w3.org/2000/svg" width="27.01" height="27.009" viewBox="0 0 27.01 27.009">
  <path id="Path_2520" d="M23.014,24.8h-4V18.529c0-1.495-.027-3.418-2.082-3.418-2.084,0-2.4,1.628-2.4,3.31V24.8h-4V11.907h3.843v1.761h.053a4.213,4.213,0,0,1,3.791-2.082c4.057,0,4.8,2.669,4.8,6.139Zm-17-14.652A2.323,2.323,0,1,1,8.332,7.822a2.322,2.322,0,0,1-2.323,2.323h0m2,14.652H4V11.907H8.01Zm17-23.013H1.993A1.972,1.972,0,0,0,0,3.731V26.842a1.972,1.972,0,0,0,1.993,1.949H25.01a1.976,1.976,0,0,0,2-1.949V3.729a1.976,1.976,0,0,0-2-1.947" transform="translate(0 -1.782)" fill="#ad7036"/>
</svg>
