<svg id="Groupe_57" data-name="Groupe 57" xmlns="http://www.w3.org/2000/svg" width="258" height="114.415" viewBox="0 0 258 114.415">
  <path id="Tracé_61" data-name="Tracé 61" d="M139.973,95.6H126.249V50.208h13.662v2.876c.541-.382.876-.614,1.206-.853a16.788,16.788,0,0,1,10.085-3.3,16.117,16.117,0,0,1,15.427,10.239,25.493,25.493,0,0,1,1.918,10.068q-.007,10.211,0,20.422a23.626,23.626,0,0,0,5.295,15.393,22.273,22.273,0,0,0,14.281,8.208c10.177,1.522,18.158-2.425,24.433-10.258,1.007-1.256,1.8-2.683,2.83-4.242-.128.505-.175.794-.274,1.063-3.779,10.318-10.7,17.5-21.36,20.556-9.635,2.761-18.526.726-26.392-5.376A31.394,31.394,0,0,1,155.292,93.8a34.52,34.52,0,0,1-.273-4.617c-.031-5.778.018-11.557-.036-17.334a15.275,15.275,0,0,0-.52-3.859c-1.364-4.967-6.267-6.054-9.7-4.7a11.793,11.793,0,0,0-4.424,3.312,1.78,1.78,0,0,0-.371,1.321q.007,4.927,0,9.854V95.6" transform="translate(-63.712 -24.694)" fill="#ad7036"/>
  <path id="Tracé_62" data-name="Tracé 62" d="M224.19,51.505h13.668c.018.471.052.927.052,1.384q.005,10.981,0,21.962a15.137,15.137,0,0,0,.688,4.674,6.97,6.97,0,0,0,10.182,4.012,13.689,13.689,0,0,0,3.78-3.2,1.916,1.916,0,0,0,.333-1.077c.046-.947.015-1.9.015-2.848V51.527h13.651V96.881H252.953v-3.01c-.49.34-.8.536-1.083.754A16.474,16.474,0,0,1,244.008,98c-6.709.892-13.448-1.8-17.03-8.461a22.9,22.9,0,0,1-2.576-8.7c-.155-1.571-.2-3.159-.2-4.739-.02-7.717-.009-15.433-.009-23.149Z" transform="translate(-113.136 -25.992)" fill="#ad7036"/>
  <path id="Tracé_63" data-name="Tracé 63" d="M480.35,64.533H468.332a3.888,3.888,0,0,1-.2-.562,4.66,4.66,0,0,0-3.244-3.622,10.6,10.6,0,0,0-6.192-.276,4.258,4.258,0,0,0-1.09.453,2.71,2.71,0,0,0-.439,4.568,7.131,7.131,0,0,0,3.475,1.406c2.871.554,5.755,1.048,8.61,1.674a17.376,17.376,0,0,1,6.174,2.657,11.754,11.754,0,0,1,5.176,8.436,16.873,16.873,0,0,1-.283,6.369,13.278,13.278,0,0,1-7.707,9.082,23.284,23.284,0,0,1-8.361,2.058,28.186,28.186,0,0,1-11.591-1.306c-6.2-2.2-9.764-6.611-10.961-13.013-.109-.582-.171-1.173-.242-1.762a5.928,5.928,0,0,1,0-.638h12.016a3.546,3.546,0,0,1,.2.494,6.16,6.16,0,0,0,5.128,4.82,11.82,11.82,0,0,0,6.1-.116,5.394,5.394,0,0,0,1.691-.817,2.214,2.214,0,0,0,.114-3.584,6.036,6.036,0,0,0-3-1.328c-3.217-.64-6.441-1.243-9.654-1.9a15.381,15.381,0,0,1-5.349-2.186,11.875,11.875,0,0,1-5.28-7.464,16.122,16.122,0,0,1,.24-8.561,13.667,13.667,0,0,1,8.366-8.816,25.471,25.471,0,0,1,11.888-1.572,24.584,24.584,0,0,1,6.489,1.309c5.837,2.112,8.981,6.337,9.766,12.414.071.547.111,1.1.178,1.783" transform="translate(-222.775 -24.685)" fill="#ad7036"/>
  <path id="Tracé_64" data-name="Tracé 64" d="M363.433,35.726h7.92c.1-5.17-.015-10.25.063-15.4h13.591c.187,2.527.053,5.082.078,7.631.024,2.527.005,5.054.005,7.7h13.662a99.949,99.949,0,0,1,.1,13.092H385.263a2.6,2.6,0,0,0-.154.553q.016,6.647.053,13.295a6,6,0,0,0,5.893,5.842,15.678,15.678,0,0,0,6.23-1.282c.44-.169.878-.342,1.479-.576.512,4.563,1.011,9.025,1.53,13.643-1.039.373-2.015.778-3.022,1.074a24.849,24.849,0,0,1-11.848.778c-6.255-1.205-10.355-4.987-12.559-10.886a24.935,24.935,0,0,1-1.475-8.846q.009-6.056,0-12.111V48.808h-7.957Z" transform="translate(-183.407 -10.257)" fill="#ad7036"/>
  <path id="Tracé_65" data-name="Tracé 65" d="M327.14,51.469h13.331c.242.888.329,43.574.094,45.383H327.18a.235.235,0,0,1-.054-.042.211.211,0,0,1-.065-.1,6.728,6.728,0,0,1-.085-.818q0-22.01.019-44.019a1.569,1.569,0,0,1,.145-.407" transform="translate(-165.009 -25.974)" fill="#ad7036"/>
  <path id="Tracé_66" data-name="Tracé 66" d="M334.107,17.163a12.287,12.287,0,0,1-16.608-.978C312.526,11.1,313.315,3.53,316.621,0l17.486,17.163" transform="translate(-158.438)" fill="#ad7036"/>
  <path id="Tracé_67" data-name="Tracé 67" d="M21.389,174.408V158.236l1.18-.072v35.318a4.982,4.982,0,0,1-.545.089,4.538,4.538,0,0,1-.577-.049v-3.108c-.608.043-.82.465-1.116.732-5.574,5.043-15.253,3.867-18.98-3.369a11.858,11.858,0,0,1,11.11-17.317,11.862,11.862,0,0,1,8.332,3.44c.111.11.237.2.6.509m0,7.957c0-1.621-.024-3.242.012-4.862a2.278,2.278,0,0,0-.566-1.616A10.8,10.8,0,0,0,9.482,172a10.624,10.624,0,0,0,0,20.644,11.034,11.034,0,0,0,11.472-4.127,2.464,2.464,0,0,0,.418-1.295c.049-1.619.019-3.241.019-4.861" transform="translate(0 -79.818)" fill="#ad7036"/>
  <path id="Tracé_68" data-name="Tracé 68" d="M40.2,109.08H19.094a10.552,10.552,0,0,0,2.59,6.724c3.59,4.235,9.792,4.041,13.233,1.932a7.539,7.539,0,0,0,2.8-3.122H39.1a7.416,7.416,0,0,1-3.151,3.971,11.879,11.879,0,0,1-8.062,1.777,11.3,11.3,0,0,1-10.041-9.881c-.792-5.576,1.777-10.6,6.457-12.721,5.9-2.672,13.439-.594,15.5,7.464a11.071,11.071,0,0,1,.406,3.856m-1.354-1.251c-.4-3.919-1.78-7.154-5.347-8.915a9.492,9.492,0,0,0-10.288.991c-2.584,1.858-4.383,5.586-3.936,7.924Z" transform="translate(-8.933 -48.779)" fill="#ad7036"/>
  <path id="Tracé_69" data-name="Tracé 69" d="M83.454,195.329H62.259c.109.766.163,1.419.3,2.056a10.022,10.022,0,0,0,10.312,8.028,11.459,11.459,0,0,0,4.581-1.065c1.482-.721,2.257-1.506,3.508-3.488H82.3a7.389,7.389,0,0,1-2.942,3.82,11.547,11.547,0,0,1-7.9,1.96,11.193,11.193,0,0,1-10.4-9.892c-.614-4.842.778-8.957,4.873-11.848,5.224-3.689,14.642-2.777,17.053,6.519a25.914,25.914,0,0,1,.461,2.924,8.338,8.338,0,0,1,.006.987m-21.039-1.3h19.5a9.52,9.52,0,0,0-9.526-9.867c-5.467.026-10.38,4.841-9.971,9.867" transform="translate(-30.745 -92.29)" fill="#ad7036"/>
  <path id="Tracé_70" data-name="Tracé 70" d="M389.994,195.324a10.023,10.023,0,0,0,7.2,9.727c4.045,1.085,9.348-.046,11.242-4.173h1.42a13.738,13.738,0,0,1-.73,1.509,9.565,9.565,0,0,1-6.67,4.1,11.958,11.958,0,0,1-5.177-.122,11.356,11.356,0,0,1-8.651-9.748,11.982,11.982,0,0,1,3.035-10.11,10.943,10.943,0,0,1,11.4-3.155c4.333,1.15,6.618,4.363,7.588,8.6a8.124,8.124,0,0,1,.208,3.379Zm-.024-1.3h19.466a9.5,9.5,0,0,0-8.823-9.842,10.032,10.032,0,0,0-10.643,9.842" transform="translate(-196.062 -92.294)" fill="#ad7036"/>
  <path id="Tracé_71" data-name="Tracé 71" d="M476.809,195.3a10.256,10.256,0,0,0,7.338,9.787,9.766,9.766,0,0,0,11.246-4.224c.245-.012.519-.036.792-.034a3.791,3.791,0,0,1,.515.081,7.083,7.083,0,0,1-2.565,3.527,11.78,11.78,0,0,1-18.568-7.534,11.879,11.879,0,0,1,5-12.128c5.424-3.577,14.815-2.456,16.956,7.127a9.13,9.13,0,0,1,.237,3.4Zm19.526-1.278a9.5,9.5,0,0,0-9.721-9.85c-5.321.105-10.094,4.9-9.713,9.85Z" transform="translate(-239.901 -92.304)" fill="#ad7036"/>
  <path id="Tracé_72" data-name="Tracé 72" d="M176.277,182.991a11.871,11.871,0,1,1-12.052,11.78,11.84,11.84,0,0,1,12.052-11.78m-.161,22.474a10.626,10.626,0,0,0,.322-21.25,10.627,10.627,0,1,0-.322,21.25" transform="translate(-82.876 -92.346)" fill="#ad7036"/>
  <path id="Tracé_73" data-name="Tracé 73" d="M74.535,113.4c.124.295.209.473.275.658a6.986,6.986,0,0,0,4.916,4.583,13.755,13.755,0,0,0,8.181-.036,4.9,4.9,0,0,0,3.612-3.589,4.224,4.224,0,0,0-1.932-4.711,9.713,9.713,0,0,0-3.818-1.193c-1.911-.312-3.831-.583-5.726-.969a12.539,12.539,0,0,1-2.678-.921c-3.753-1.72-3.553-6.617-.809-8.659a8.932,8.932,0,0,1,4.371-1.7,15.193,15.193,0,0,1,6.351.412A8.463,8.463,0,0,1,91.5,99.99a6.569,6.569,0,0,1,1.361,3.5l-1.163.106a3.171,3.171,0,0,1-.207-.479,6.032,6.032,0,0,0-4.767-4.739,12.64,12.64,0,0,0-7.025.056,7.29,7.29,0,0,0-2.4,1.233,3.755,3.755,0,0,0,.7,6.456,16.291,16.291,0,0,0,3.729,1.1c1.855.389,3.748.6,5.6,1a11.486,11.486,0,0,1,2.771,1.007c3.571,1.822,3.578,6.681,1.122,8.887a8.66,8.66,0,0,1-3.874,1.953,15.3,15.3,0,0,1-8.313-.293,7.972,7.972,0,0,1-5.5-5.446,3.293,3.293,0,0,1-.117-.459,2.237,2.237,0,0,1,0-.357,1.67,1.67,0,0,1,.346-.1c.234-.015.469,0,.767,0" transform="translate(-37.05 -48.805)" fill="#ad7036"/>
  <path id="Tracé_74" data-name="Tracé 74" d="M144.02,157.641l-.3.85a1.567,1.567,0,0,1-.354.046c-1.1-.116-2.2-.28-3.3-.357a5.2,5.2,0,0,0-5.73,5.068c-.2,2.309-.038,4.65-.038,7.088h9.118l.12,1.205H134.3c-.071,1.869-.027,3.631-.035,5.39-.007,1.781,0,3.562,0,5.342v10.6h-1.275V171.618c-2.284-.085-4.446.005-6.7-.058l-.077-1.156h6.646c.042-.411.1-.712.1-1.012.009-1.622-.018-3.246.015-4.867a12.286,12.286,0,0,1,.223-2.357,6.431,6.431,0,0,1,5.6-5.213,11.283,11.283,0,0,1,5.225.687" transform="translate(-63.691 -79.167)" fill="#ad7036"/>
  <path id="Tracé_75" data-name="Tracé 75" d="M321.183,205.11c3.474-7.073,6.847-13.941,10.241-20.85h1.47L321.9,206.693h-1.492l-10.99-22.423h1.471l10.29,20.839" transform="translate(-156.15 -92.987)" fill="#ad7036"/>
  <path id="Tracé_76" data-name="Tracé 76" d="M243.565,197.077l1.183-.367v16.143l-1.121.107v-2.91c-.6-.042-.775.382-1.056.6a12.776,12.776,0,0,1-11.377,2.529,8.068,8.068,0,0,1-6.324-7.16c-.2-1.682-.164-3.392-.2-5.09-.029-1.42-.006-2.841-.006-4.4l1.275.34c.021.362.057.708.058,1.054.006,2.056-.022,4.113.016,6.169a12.255,12.255,0,0,0,.272,2.466,7.228,7.228,0,0,0,6.737,5.7,11.776,11.776,0,0,0,8.726-2.667c.272-.228.515-.49.77-.738a3.46,3.46,0,0,0,1.071-2.752c-.073-2.962-.025-5.926-.025-9.027" transform="translate(-113.373 -99.178)" fill="#ad7036"/>
  <path id="Tracé_77" data-name="Tracé 77" d="M448,183.455h1.226v4.169c2.449-2.956,5.34-4.9,9.258-4.975a1.5,1.5,0,0,1,.157.395c.008.229-.022.459-.039.715-.784.146-1.534.22-2.245.428a10.933,10.933,0,0,0-6.953,6.335,3.127,3.127,0,0,0-.156,1.273q-.015,6.344-.006,12.689v1.368H448Z" transform="translate(-226.086 -92.174)" fill="#ad7036"/>
  <path id="Tracé_78" data-name="Tracé 78" d="M.594,72H1.6c.269.286.389,32.544.118,35.271H.594Z" transform="translate(-0.3 -36.333)" fill="#ad7036"/>
  <path id="Tracé_79" data-name="Tracé 79" d="M283.228,185.057l1.149-.719v3.244l.2.116c.21-.237.431-.466.628-.713a10.95,10.95,0,0,1,6.811-4.2c.537-.1,1.089-.11,1.575-.156.115.139.2.195.2.255.015.268.006.538.006.817a1.718,1.718,0,0,1-.362.132c-3.944.37-6.607,2.574-8.5,5.9a4.138,4.138,0,0,0-.554,2.142c.025,4.195.012,8.39.012,12.585v1.372l-1.174.105Z" transform="translate(-142.931 -92.165)" fill="#ad7036"/>
  <path id="Tracé_80" data-name="Tracé 80" d="M371.866,206.645H370.7V184.209l1.05-.065c.263.9.362,20.014.12,22.5" transform="translate(-187.072 -92.928)" fill="#ad7036"/>
  <path id="Tracé_81" data-name="Tracé 81" d="M401.7,160.679a1.522,1.522,0,0,1,2.066.786c1,1.7,2.1,3.334,3.159,5,.182.287.336.592.512.906a1.415,1.415,0,0,1-1.923-.726c-1.209-1.98-2.495-3.914-3.814-5.965" transform="translate(-202.718 -81.019)" fill="#ad7036"/>
  <path id="Tracé_82" data-name="Tracé 82" d="M369.378,165.14a1.23,1.23,0,0,1,2.458.059,1.231,1.231,0,1,1-2.458-.059" transform="translate(-186.407 -82.741)" fill="#ad7036"/>
</svg>
