<svg xmlns="http://www.w3.org/2000/svg" width="3084.302" height="60.445" viewBox="0 0 3084.302 60.445">
  <g id="Groupe_145" data-name="Groupe 145" transform="translate(9 -1332.277)">
    <g id="Groupe_80" data-name="Groupe 80" transform="translate(-9 172.277)" opacity="0.08">
      <g id="Groupe_59" data-name="Groupe 59" transform="translate(0 1160)">
        <path id="Tracé_111" data-name="Tracé 111" d="M9070.833,13743.5h29.977v28.573h-15.342v-14.587h-14.635Z" transform="translate(-9053.491 -13731.217)" fill="#ad7036"/>
        <rect id="Rectangle_89" data-name="Rectangle 89" width="77.943" height="7.158" transform="translate(0 40.562)" fill="#ad7036"/>
        <rect id="Rectangle_90" data-name="Rectangle 90" width="77.943" height="3.977" fill="#ad7036"/>
        <rect id="Rectangle_91" data-name="Rectangle 91" width="77.943" height="3.977" transform="translate(0 56.469)" fill="#ad7036"/>
      </g>
      <g id="Groupe_72" data-name="Groupe 72" transform="translate(539.236 1160)">
        <path id="Tracé_111-2" data-name="Tracé 111" d="M9070.833,13743.5h29.977v28.573h-15.342v-14.587h-14.635Z" transform="translate(-9053.491 -13731.217)" fill="#ad7036"/>
        <rect id="Rectangle_89-2" data-name="Rectangle 89" width="77.943" height="7.158" transform="translate(0 40.562)" fill="#ad7036"/>
        <rect id="Rectangle_90-2" data-name="Rectangle 90" width="77.943" height="3.977" fill="#ad7036"/>
        <rect id="Rectangle_91-2" data-name="Rectangle 91" width="77.943" height="3.977" transform="translate(0 56.469)" fill="#ad7036"/>
      </g>
      <g id="Groupe_79" data-name="Groupe 79" transform="translate(1078.472 1160)">
        <path id="Tracé_111-3" data-name="Tracé 111" d="M9070.833,13743.5h29.977v28.573h-15.342v-14.587h-14.635Z" transform="translate(-9053.491 -13731.217)" fill="#ad7036"/>
        <rect id="Rectangle_89-3" data-name="Rectangle 89" width="77.943" height="7.158" transform="translate(0 40.562)" fill="#ad7036"/>
        <rect id="Rectangle_90-3" data-name="Rectangle 90" width="77.943" height="3.977" fill="#ad7036"/>
        <rect id="Rectangle_91-3" data-name="Rectangle 91" width="77.943" height="3.977" transform="translate(0 56.469)" fill="#ad7036"/>
      </g>
      <g id="Groupe_60" data-name="Groupe 60" transform="translate(77.147 1160)">
        <path id="Tracé_111-4" data-name="Tracé 111" d="M9070.833,13743.5h29.977v28.573h-15.342v-14.587h-14.635Z" transform="translate(-9053.356 -13731.217)" fill="#ad7036"/>
        <rect id="Rectangle_89-4" data-name="Rectangle 89" width="77.943" height="7.158" transform="translate(0 40.562)" fill="#ad7036"/>
        <rect id="Rectangle_90-4" data-name="Rectangle 90" width="77.943" height="3.977" transform="translate(0)" fill="#ad7036"/>
        <rect id="Rectangle_91-4" data-name="Rectangle 91" width="77.943" height="3.977" transform="translate(0 56.469)" fill="#ad7036"/>
      </g>
      <g id="Groupe_71" data-name="Groupe 71" transform="translate(616.383 1160)">
        <path id="Tracé_111-5" data-name="Tracé 111" d="M9070.833,13743.5h29.977v28.573h-15.342v-14.587h-14.635Z" transform="translate(-9053.356 -13731.217)" fill="#ad7036"/>
        <rect id="Rectangle_89-5" data-name="Rectangle 89" width="77.943" height="7.158" transform="translate(0 40.562)" fill="#ad7036"/>
        <rect id="Rectangle_90-5" data-name="Rectangle 90" width="77.943" height="3.977" transform="translate(0)" fill="#ad7036"/>
        <rect id="Rectangle_91-5" data-name="Rectangle 91" width="77.943" height="3.977" transform="translate(0 56.469)" fill="#ad7036"/>
      </g>
      <g id="Groupe_78" data-name="Groupe 78" transform="translate(1155.619 1160)">
        <path id="Tracé_111-6" data-name="Tracé 111" d="M9070.833,13743.5h29.977v28.573h-15.342v-14.587h-14.635Z" transform="translate(-9053.356 -13731.217)" fill="#ad7036"/>
        <rect id="Rectangle_89-6" data-name="Rectangle 89" width="77.943" height="7.158" transform="translate(0 40.562)" fill="#ad7036"/>
        <rect id="Rectangle_90-6" data-name="Rectangle 90" width="77.943" height="3.977" transform="translate(0)" fill="#ad7036"/>
        <rect id="Rectangle_91-6" data-name="Rectangle 91" width="77.943" height="3.977" transform="translate(0 56.469)" fill="#ad7036"/>
      </g>
      <g id="Groupe_61" data-name="Groupe 61" transform="translate(153.499 1160)">
        <path id="Tracé_111-7" data-name="Tracé 111" d="M9070.833,13743.5h29.977v28.573h-15.342v-14.587h-14.635Z" transform="translate(-9053.189 -13731.217)" fill="#ad7036"/>
        <rect id="Rectangle_89-7" data-name="Rectangle 89" width="78.738" height="7.158" transform="translate(0 40.562)" fill="#ad7036"/>
        <rect id="Rectangle_90-7" data-name="Rectangle 90" width="78.738" height="3.977" transform="translate(0)" fill="#ad7036"/>
        <rect id="Rectangle_91-7" data-name="Rectangle 91" width="78.738" height="3.977" transform="translate(0 56.469)" fill="#ad7036"/>
      </g>
      <g id="Groupe_70" data-name="Groupe 70" transform="translate(693.53 1160)">
        <path id="Tracé_111-8" data-name="Tracé 111" d="M9070.833,13743.5h29.977v28.573h-15.342v-14.587h-14.635Z" transform="translate(-9053.189 -13731.217)" fill="#ad7036"/>
        <rect id="Rectangle_89-8" data-name="Rectangle 89" width="78.738" height="7.158" transform="translate(0 40.562)" fill="#ad7036"/>
        <rect id="Rectangle_90-8" data-name="Rectangle 90" width="78.738" height="3.977" transform="translate(0)" fill="#ad7036"/>
        <rect id="Rectangle_91-8" data-name="Rectangle 91" width="78.738" height="3.977" transform="translate(0 56.469)" fill="#ad7036"/>
      </g>
      <g id="Groupe_77" data-name="Groupe 77" transform="translate(1232.766 1160)">
        <path id="Tracé_111-9" data-name="Tracé 111" d="M9070.833,13743.5h29.977v28.573h-15.342v-14.587h-14.635Z" transform="translate(-9053.189 -13731.217)" fill="#ad7036"/>
        <rect id="Rectangle_89-9" data-name="Rectangle 89" width="78.738" height="7.158" transform="translate(0 40.562)" fill="#ad7036"/>
        <rect id="Rectangle_90-9" data-name="Rectangle 90" width="78.738" height="3.977" transform="translate(0)" fill="#ad7036"/>
        <rect id="Rectangle_91-9" data-name="Rectangle 91" width="78.738" height="3.977" transform="translate(0 56.469)" fill="#ad7036"/>
      </g>
      <g id="Groupe_62" data-name="Groupe 62" transform="translate(231.442 1160)">
        <path id="Tracé_111-10" data-name="Tracé 111" d="M9070.833,13743.5h29.977v28.573h-15.342v-14.587h-14.635Z" transform="translate(-9053.884 -13731.217)" fill="#ad7036"/>
        <rect id="Rectangle_89-10" data-name="Rectangle 89" width="77.943" height="7.158" transform="translate(0 40.562)" fill="#ad7036"/>
        <rect id="Rectangle_90-10" data-name="Rectangle 90" width="77.943" height="3.977" transform="translate(0)" fill="#ad7036"/>
        <rect id="Rectangle_91-10" data-name="Rectangle 91" width="77.943" height="3.977" transform="translate(0 56.469)" fill="#ad7036"/>
      </g>
      <g id="Groupe_69" data-name="Groupe 69" transform="translate(770.678 1160)">
        <path id="Tracé_111-11" data-name="Tracé 111" d="M9070.833,13743.5h29.977v28.573h-15.342v-14.587h-14.635Z" transform="translate(-9053.884 -13731.217)" fill="#ad7036"/>
        <rect id="Rectangle_89-11" data-name="Rectangle 89" width="77.943" height="7.158" transform="translate(0 40.562)" fill="#ad7036"/>
        <rect id="Rectangle_90-11" data-name="Rectangle 90" width="77.943" height="3.977" transform="translate(0)" fill="#ad7036"/>
        <rect id="Rectangle_91-11" data-name="Rectangle 91" width="77.943" height="3.977" transform="translate(0 56.469)" fill="#ad7036"/>
      </g>
      <g id="Groupe_76" data-name="Groupe 76" transform="translate(1310.709 1160)">
        <path id="Tracé_111-12" data-name="Tracé 111" d="M9070.833,13743.5h29.977v28.573h-15.342v-14.587h-14.635Z" transform="translate(-9053.884 -13731.217)" fill="#ad7036"/>
        <rect id="Rectangle_89-12" data-name="Rectangle 89" width="77.943" height="7.158" transform="translate(0 40.562)" fill="#ad7036"/>
        <rect id="Rectangle_90-12" data-name="Rectangle 90" width="77.943" height="3.977" transform="translate(0)" fill="#ad7036"/>
        <rect id="Rectangle_91-12" data-name="Rectangle 91" width="77.943" height="3.977" transform="translate(0 56.469)" fill="#ad7036"/>
      </g>
      <g id="Groupe_63" data-name="Groupe 63" transform="translate(308.589 1160)">
        <path id="Tracé_111-13" data-name="Tracé 111" d="M9070.833,13743.5h29.977v28.573h-15.342v-14.587h-14.635Z" transform="translate(-9053.879 -13731.217)" fill="#ad7036"/>
        <rect id="Rectangle_89-13" data-name="Rectangle 89" width="77.943" height="7.158" transform="translate(0 40.562)" fill="#ad7036"/>
        <rect id="Rectangle_90-13" data-name="Rectangle 90" width="77.943" height="3.977" transform="translate(0)" fill="#ad7036"/>
        <rect id="Rectangle_91-13" data-name="Rectangle 91" width="77.943" height="3.977" transform="translate(0 56.469)" fill="#ad7036"/>
      </g>
      <g id="Groupe_68" data-name="Groupe 68" transform="translate(847.825 1160)">
        <path id="Tracé_111-14" data-name="Tracé 111" d="M9070.833,13743.5h29.977v28.573h-15.342v-14.587h-14.635Z" transform="translate(-9053.879 -13731.217)" fill="#ad7036"/>
        <rect id="Rectangle_89-14" data-name="Rectangle 89" width="77.943" height="7.158" transform="translate(0 40.562)" fill="#ad7036"/>
        <rect id="Rectangle_90-14" data-name="Rectangle 90" width="77.943" height="3.977" transform="translate(0)" fill="#ad7036"/>
        <rect id="Rectangle_91-14" data-name="Rectangle 91" width="77.943" height="3.977" transform="translate(0 56.469)" fill="#ad7036"/>
      </g>
      <g id="Groupe_75" data-name="Groupe 75" transform="translate(1387.061 1160)">
        <path id="Tracé_111-15" data-name="Tracé 111" d="M9070.833,13743.5h29.977v28.573h-15.342v-14.587h-14.635Z" transform="translate(-9053.879 -13731.217)" fill="#ad7036"/>
        <rect id="Rectangle_89-15" data-name="Rectangle 89" width="77.943" height="7.158" transform="translate(0 40.562)" fill="#ad7036"/>
        <rect id="Rectangle_90-15" data-name="Rectangle 90" width="77.943" height="3.977" transform="translate(0)" fill="#ad7036"/>
        <rect id="Rectangle_91-15" data-name="Rectangle 91" width="77.943" height="3.977" transform="translate(0 56.469)" fill="#ad7036"/>
      </g>
      <g id="Groupe_64" data-name="Groupe 64" transform="translate(385.737 1160)">
        <path id="Tracé_111-16" data-name="Tracé 111" d="M9070.833,13743.5h29.977v28.573h-15.342v-14.587h-14.635Z" transform="translate(-9053.713 -13731.217)" fill="#ad7036"/>
        <rect id="Rectangle_89-16" data-name="Rectangle 89" width="77.943" height="7.158" transform="translate(0 40.562)" fill="#ad7036"/>
        <rect id="Rectangle_90-16" data-name="Rectangle 90" width="77.943" height="3.977" fill="#ad7036"/>
        <rect id="Rectangle_91-16" data-name="Rectangle 91" width="77.943" height="3.977" transform="translate(0 56.469)" fill="#ad7036"/>
      </g>
      <g id="Groupe_67" data-name="Groupe 67" transform="translate(924.972 1160)">
        <path id="Tracé_111-17" data-name="Tracé 111" d="M9070.833,13743.5h29.977v28.573h-15.342v-14.587h-14.635Z" transform="translate(-9053.713 -13731.217)" fill="#ad7036"/>
        <rect id="Rectangle_89-17" data-name="Rectangle 89" width="77.943" height="7.158" transform="translate(0 40.562)" fill="#ad7036"/>
        <rect id="Rectangle_90-17" data-name="Rectangle 90" width="77.943" height="3.977" fill="#ad7036"/>
        <rect id="Rectangle_91-17" data-name="Rectangle 91" width="77.943" height="3.977" transform="translate(0 56.469)" fill="#ad7036"/>
      </g>
      <g id="Groupe_74" data-name="Groupe 74" transform="translate(1464.208 1160)">
        <path id="Tracé_111-18" data-name="Tracé 111" d="M9070.833,13743.5h29.977v28.573h-15.342v-14.587h-14.635Z" transform="translate(-9053.713 -13731.217)" fill="#ad7036"/>
        <rect id="Rectangle_89-18" data-name="Rectangle 89" width="77.943" height="7.158" transform="translate(0 40.562)" fill="#ad7036"/>
        <rect id="Rectangle_90-18" data-name="Rectangle 90" width="77.943" height="3.977" fill="#ad7036"/>
        <rect id="Rectangle_91-18" data-name="Rectangle 91" width="77.943" height="3.977" transform="translate(0 56.469)" fill="#ad7036"/>
      </g>
      <g id="Groupe_65" data-name="Groupe 65" transform="translate(462.089 1160)">
        <path id="Tracé_111-19" data-name="Tracé 111" d="M9070.833,13743.5h29.977v28.573h-15.342v-14.587h-14.635Z" transform="translate(-9053.545 -13731.217)" fill="#ad7036"/>
        <rect id="Rectangle_89-19" data-name="Rectangle 89" width="77.943" height="7.158" transform="translate(0 40.562)" fill="#ad7036"/>
        <rect id="Rectangle_90-19" data-name="Rectangle 90" width="77.943" height="3.977" transform="translate(0)" fill="#ad7036"/>
        <rect id="Rectangle_91-19" data-name="Rectangle 91" width="77.943" height="3.977" transform="translate(0 56.469)" fill="#ad7036"/>
      </g>
      <g id="Groupe_66" data-name="Groupe 66" transform="translate(1002.12 1160)">
        <path id="Tracé_111-20" data-name="Tracé 111" d="M9070.833,13743.5h29.977v28.573h-15.342v-14.587h-14.635Z" transform="translate(-9053.545 -13731.217)" fill="#ad7036"/>
        <rect id="Rectangle_89-20" data-name="Rectangle 89" width="77.943" height="7.158" transform="translate(0 40.562)" fill="#ad7036"/>
        <rect id="Rectangle_90-20" data-name="Rectangle 90" width="77.943" height="3.977" transform="translate(0)" fill="#ad7036"/>
        <rect id="Rectangle_91-20" data-name="Rectangle 91" width="77.943" height="3.977" transform="translate(0 56.469)" fill="#ad7036"/>
      </g>
    </g>
    <g id="Groupe_144" data-name="Groupe 144" transform="translate(1533.151 172.277)" opacity="0.08">
      <g id="Groupe_59-2" data-name="Groupe 59" transform="translate(0 1160)">
        <path id="Tracé_111-21" data-name="Tracé 111" d="M9070.833,13743.5h29.977v28.573h-15.342v-14.587h-14.635Z" transform="translate(-9053.491 -13731.217)" fill="#ad7036"/>
        <rect id="Rectangle_89-21" data-name="Rectangle 89" width="77.943" height="7.158" transform="translate(0 40.562)" fill="#ad7036"/>
        <rect id="Rectangle_90-21" data-name="Rectangle 90" width="77.943" height="3.977" fill="#ad7036"/>
        <rect id="Rectangle_91-21" data-name="Rectangle 91" width="77.943" height="3.977" transform="translate(0 56.469)" fill="#ad7036"/>
      </g>
      <g id="Groupe_72-2" data-name="Groupe 72" transform="translate(539.236 1160)">
        <path id="Tracé_111-22" data-name="Tracé 111" d="M9070.833,13743.5h29.977v28.573h-15.342v-14.587h-14.635Z" transform="translate(-9053.491 -13731.217)" fill="#ad7036"/>
        <rect id="Rectangle_89-22" data-name="Rectangle 89" width="77.943" height="7.158" transform="translate(0 40.562)" fill="#ad7036"/>
        <rect id="Rectangle_90-22" data-name="Rectangle 90" width="77.943" height="3.977" fill="#ad7036"/>
        <rect id="Rectangle_91-22" data-name="Rectangle 91" width="77.943" height="3.977" transform="translate(0 56.469)" fill="#ad7036"/>
      </g>
      <g id="Groupe_79-2" data-name="Groupe 79" transform="translate(1078.472 1160)">
        <path id="Tracé_111-23" data-name="Tracé 111" d="M9070.833,13743.5h29.977v28.573h-15.342v-14.587h-14.635Z" transform="translate(-9053.491 -13731.217)" fill="#ad7036"/>
        <rect id="Rectangle_89-23" data-name="Rectangle 89" width="77.943" height="7.158" transform="translate(0 40.562)" fill="#ad7036"/>
        <rect id="Rectangle_90-23" data-name="Rectangle 90" width="77.943" height="3.977" fill="#ad7036"/>
        <rect id="Rectangle_91-23" data-name="Rectangle 91" width="77.943" height="3.977" transform="translate(0 56.469)" fill="#ad7036"/>
      </g>
      <g id="Groupe_60-2" data-name="Groupe 60" transform="translate(77.147 1160)">
        <path id="Tracé_111-24" data-name="Tracé 111" d="M9070.833,13743.5h29.977v28.573h-15.342v-14.587h-14.635Z" transform="translate(-9053.356 -13731.217)" fill="#ad7036"/>
        <rect id="Rectangle_89-24" data-name="Rectangle 89" width="77.943" height="7.158" transform="translate(0 40.562)" fill="#ad7036"/>
        <rect id="Rectangle_90-24" data-name="Rectangle 90" width="77.943" height="3.977" transform="translate(0)" fill="#ad7036"/>
        <rect id="Rectangle_91-24" data-name="Rectangle 91" width="77.943" height="3.977" transform="translate(0 56.469)" fill="#ad7036"/>
      </g>
      <g id="Groupe_71-2" data-name="Groupe 71" transform="translate(616.383 1160)">
        <path id="Tracé_111-25" data-name="Tracé 111" d="M9070.833,13743.5h29.977v28.573h-15.342v-14.587h-14.635Z" transform="translate(-9053.356 -13731.217)" fill="#ad7036"/>
        <rect id="Rectangle_89-25" data-name="Rectangle 89" width="77.943" height="7.158" transform="translate(0 40.562)" fill="#ad7036"/>
        <rect id="Rectangle_90-25" data-name="Rectangle 90" width="77.943" height="3.977" transform="translate(0)" fill="#ad7036"/>
        <rect id="Rectangle_91-25" data-name="Rectangle 91" width="77.943" height="3.977" transform="translate(0 56.469)" fill="#ad7036"/>
      </g>
      <g id="Groupe_78-2" data-name="Groupe 78" transform="translate(1155.619 1160)">
        <path id="Tracé_111-26" data-name="Tracé 111" d="M9070.833,13743.5h29.977v28.573h-15.342v-14.587h-14.635Z" transform="translate(-9053.356 -13731.217)" fill="#ad7036"/>
        <rect id="Rectangle_89-26" data-name="Rectangle 89" width="77.943" height="7.158" transform="translate(0 40.562)" fill="#ad7036"/>
        <rect id="Rectangle_90-26" data-name="Rectangle 90" width="77.943" height="3.977" transform="translate(0)" fill="#ad7036"/>
        <rect id="Rectangle_91-26" data-name="Rectangle 91" width="77.943" height="3.977" transform="translate(0 56.469)" fill="#ad7036"/>
      </g>
      <g id="Groupe_61-2" data-name="Groupe 61" transform="translate(153.499 1160)">
        <path id="Tracé_111-27" data-name="Tracé 111" d="M9070.833,13743.5h29.977v28.573h-15.342v-14.587h-14.635Z" transform="translate(-9053.189 -13731.217)" fill="#ad7036"/>
        <rect id="Rectangle_89-27" data-name="Rectangle 89" width="78.738" height="7.158" transform="translate(0 40.562)" fill="#ad7036"/>
        <rect id="Rectangle_90-27" data-name="Rectangle 90" width="78.738" height="3.977" transform="translate(0)" fill="#ad7036"/>
        <rect id="Rectangle_91-27" data-name="Rectangle 91" width="78.738" height="3.977" transform="translate(0 56.469)" fill="#ad7036"/>
      </g>
      <g id="Groupe_70-2" data-name="Groupe 70" transform="translate(693.53 1160)">
        <path id="Tracé_111-28" data-name="Tracé 111" d="M9070.833,13743.5h29.977v28.573h-15.342v-14.587h-14.635Z" transform="translate(-9053.189 -13731.217)" fill="#ad7036"/>
        <rect id="Rectangle_89-28" data-name="Rectangle 89" width="78.738" height="7.158" transform="translate(0 40.562)" fill="#ad7036"/>
        <rect id="Rectangle_90-28" data-name="Rectangle 90" width="78.738" height="3.977" transform="translate(0)" fill="#ad7036"/>
        <rect id="Rectangle_91-28" data-name="Rectangle 91" width="78.738" height="3.977" transform="translate(0 56.469)" fill="#ad7036"/>
      </g>
      <g id="Groupe_77-2" data-name="Groupe 77" transform="translate(1232.766 1160)">
        <path id="Tracé_111-29" data-name="Tracé 111" d="M9070.833,13743.5h29.977v28.573h-15.342v-14.587h-14.635Z" transform="translate(-9053.189 -13731.217)" fill="#ad7036"/>
        <rect id="Rectangle_89-29" data-name="Rectangle 89" width="78.738" height="7.158" transform="translate(0 40.562)" fill="#ad7036"/>
        <rect id="Rectangle_90-29" data-name="Rectangle 90" width="78.738" height="3.977" transform="translate(0)" fill="#ad7036"/>
        <rect id="Rectangle_91-29" data-name="Rectangle 91" width="78.738" height="3.977" transform="translate(0 56.469)" fill="#ad7036"/>
      </g>
      <g id="Groupe_62-2" data-name="Groupe 62" transform="translate(231.442 1160)">
        <path id="Tracé_111-30" data-name="Tracé 111" d="M9070.833,13743.5h29.977v28.573h-15.342v-14.587h-14.635Z" transform="translate(-9053.884 -13731.217)" fill="#ad7036"/>
        <rect id="Rectangle_89-30" data-name="Rectangle 89" width="77.943" height="7.158" transform="translate(0 40.562)" fill="#ad7036"/>
        <rect id="Rectangle_90-30" data-name="Rectangle 90" width="77.943" height="3.977" transform="translate(0)" fill="#ad7036"/>
        <rect id="Rectangle_91-30" data-name="Rectangle 91" width="77.943" height="3.977" transform="translate(0 56.469)" fill="#ad7036"/>
      </g>
      <g id="Groupe_69-2" data-name="Groupe 69" transform="translate(770.678 1160)">
        <path id="Tracé_111-31" data-name="Tracé 111" d="M9070.833,13743.5h29.977v28.573h-15.342v-14.587h-14.635Z" transform="translate(-9053.884 -13731.217)" fill="#ad7036"/>
        <rect id="Rectangle_89-31" data-name="Rectangle 89" width="77.943" height="7.158" transform="translate(0 40.562)" fill="#ad7036"/>
        <rect id="Rectangle_90-31" data-name="Rectangle 90" width="77.943" height="3.977" transform="translate(0)" fill="#ad7036"/>
        <rect id="Rectangle_91-31" data-name="Rectangle 91" width="77.943" height="3.977" transform="translate(0 56.469)" fill="#ad7036"/>
      </g>
      <g id="Groupe_76-2" data-name="Groupe 76" transform="translate(1310.709 1160)">
        <path id="Tracé_111-32" data-name="Tracé 111" d="M9070.833,13743.5h29.977v28.573h-15.342v-14.587h-14.635Z" transform="translate(-9053.884 -13731.217)" fill="#ad7036"/>
        <rect id="Rectangle_89-32" data-name="Rectangle 89" width="77.943" height="7.158" transform="translate(0 40.562)" fill="#ad7036"/>
        <rect id="Rectangle_90-32" data-name="Rectangle 90" width="77.943" height="3.977" transform="translate(0)" fill="#ad7036"/>
        <rect id="Rectangle_91-32" data-name="Rectangle 91" width="77.943" height="3.977" transform="translate(0 56.469)" fill="#ad7036"/>
      </g>
      <g id="Groupe_63-2" data-name="Groupe 63" transform="translate(308.589 1160)">
        <path id="Tracé_111-33" data-name="Tracé 111" d="M9070.833,13743.5h29.977v28.573h-15.342v-14.587h-14.635Z" transform="translate(-9053.879 -13731.217)" fill="#ad7036"/>
        <rect id="Rectangle_89-33" data-name="Rectangle 89" width="77.943" height="7.158" transform="translate(0 40.562)" fill="#ad7036"/>
        <rect id="Rectangle_90-33" data-name="Rectangle 90" width="77.943" height="3.977" transform="translate(0)" fill="#ad7036"/>
        <rect id="Rectangle_91-33" data-name="Rectangle 91" width="77.943" height="3.977" transform="translate(0 56.469)" fill="#ad7036"/>
      </g>
      <g id="Groupe_68-2" data-name="Groupe 68" transform="translate(847.825 1160)">
        <path id="Tracé_111-34" data-name="Tracé 111" d="M9070.833,13743.5h29.977v28.573h-15.342v-14.587h-14.635Z" transform="translate(-9053.879 -13731.217)" fill="#ad7036"/>
        <rect id="Rectangle_89-34" data-name="Rectangle 89" width="77.943" height="7.158" transform="translate(0 40.562)" fill="#ad7036"/>
        <rect id="Rectangle_90-34" data-name="Rectangle 90" width="77.943" height="3.977" transform="translate(0)" fill="#ad7036"/>
        <rect id="Rectangle_91-34" data-name="Rectangle 91" width="77.943" height="3.977" transform="translate(0 56.469)" fill="#ad7036"/>
      </g>
      <g id="Groupe_75-2" data-name="Groupe 75" transform="translate(1387.061 1160)">
        <path id="Tracé_111-35" data-name="Tracé 111" d="M9070.833,13743.5h29.977v28.573h-15.342v-14.587h-14.635Z" transform="translate(-9053.879 -13731.217)" fill="#ad7036"/>
        <rect id="Rectangle_89-35" data-name="Rectangle 89" width="77.943" height="7.158" transform="translate(0 40.562)" fill="#ad7036"/>
        <rect id="Rectangle_90-35" data-name="Rectangle 90" width="77.943" height="3.977" transform="translate(0)" fill="#ad7036"/>
        <rect id="Rectangle_91-35" data-name="Rectangle 91" width="77.943" height="3.977" transform="translate(0 56.469)" fill="#ad7036"/>
      </g>
      <g id="Groupe_64-2" data-name="Groupe 64" transform="translate(385.737 1160)">
        <path id="Tracé_111-36" data-name="Tracé 111" d="M9070.833,13743.5h29.977v28.573h-15.342v-14.587h-14.635Z" transform="translate(-9053.713 -13731.217)" fill="#ad7036"/>
        <rect id="Rectangle_89-36" data-name="Rectangle 89" width="77.943" height="7.158" transform="translate(0 40.562)" fill="#ad7036"/>
        <rect id="Rectangle_90-36" data-name="Rectangle 90" width="77.943" height="3.977" fill="#ad7036"/>
        <rect id="Rectangle_91-36" data-name="Rectangle 91" width="77.943" height="3.977" transform="translate(0 56.469)" fill="#ad7036"/>
      </g>
      <g id="Groupe_67-2" data-name="Groupe 67" transform="translate(924.972 1160)">
        <path id="Tracé_111-37" data-name="Tracé 111" d="M9070.833,13743.5h29.977v28.573h-15.342v-14.587h-14.635Z" transform="translate(-9053.713 -13731.217)" fill="#ad7036"/>
        <rect id="Rectangle_89-37" data-name="Rectangle 89" width="77.943" height="7.158" transform="translate(0 40.562)" fill="#ad7036"/>
        <rect id="Rectangle_90-37" data-name="Rectangle 90" width="77.943" height="3.977" fill="#ad7036"/>
        <rect id="Rectangle_91-37" data-name="Rectangle 91" width="77.943" height="3.977" transform="translate(0 56.469)" fill="#ad7036"/>
      </g>
      <g id="Groupe_74-2" data-name="Groupe 74" transform="translate(1464.208 1160)">
        <path id="Tracé_111-38" data-name="Tracé 111" d="M9070.833,13743.5h29.977v28.573h-15.342v-14.587h-14.635Z" transform="translate(-9053.713 -13731.217)" fill="#ad7036"/>
        <rect id="Rectangle_89-38" data-name="Rectangle 89" width="77.943" height="7.158" transform="translate(0 40.562)" fill="#ad7036"/>
        <rect id="Rectangle_90-38" data-name="Rectangle 90" width="77.943" height="3.977" fill="#ad7036"/>
        <rect id="Rectangle_91-38" data-name="Rectangle 91" width="77.943" height="3.977" transform="translate(0 56.469)" fill="#ad7036"/>
      </g>
      <g id="Groupe_65-2" data-name="Groupe 65" transform="translate(462.089 1160)">
        <path id="Tracé_111-39" data-name="Tracé 111" d="M9070.833,13743.5h29.977v28.573h-15.342v-14.587h-14.635Z" transform="translate(-9053.545 -13731.217)" fill="#ad7036"/>
        <rect id="Rectangle_89-39" data-name="Rectangle 89" width="77.943" height="7.158" transform="translate(0 40.562)" fill="#ad7036"/>
        <rect id="Rectangle_90-39" data-name="Rectangle 90" width="77.943" height="3.977" transform="translate(0)" fill="#ad7036"/>
        <rect id="Rectangle_91-39" data-name="Rectangle 91" width="77.943" height="3.977" transform="translate(0 56.469)" fill="#ad7036"/>
      </g>
      <g id="Groupe_66-2" data-name="Groupe 66" transform="translate(1002.12 1160)">
        <path id="Tracé_111-40" data-name="Tracé 111" d="M9070.833,13743.5h29.977v28.573h-15.342v-14.587h-14.635Z" transform="translate(-9053.545 -13731.217)" fill="#ad7036"/>
        <rect id="Rectangle_89-40" data-name="Rectangle 89" width="77.943" height="7.158" transform="translate(0 40.562)" fill="#ad7036"/>
        <rect id="Rectangle_90-40" data-name="Rectangle 90" width="77.943" height="3.977" transform="translate(0)" fill="#ad7036"/>
        <rect id="Rectangle_91-40" data-name="Rectangle 91" width="77.943" height="3.977" transform="translate(0 56.469)" fill="#ad7036"/>
      </g>
    </g>
  </g>
</svg>
