<svg xmlns="http://www.w3.org/2000/svg" width="272.913" height="27.009" viewBox="0 0 272.913 27.009">
  <g id="Groupe_120" data-name="Groupe 120" transform="translate(-1307.113 -3682)">
    <g id="linkedin" transform="translate(1553.017 3682)">
      <path id="Path_2520" d="M23.014,24.8h-4V18.529c0-1.495-.027-3.418-2.082-3.418-2.084,0-2.4,1.628-2.4,3.31V24.8h-4V11.907h3.843v1.761h.053a4.213,4.213,0,0,1,3.791-2.082c4.057,0,4.8,2.669,4.8,6.139Zm-17-14.652A2.323,2.323,0,1,1,8.332,7.822a2.322,2.322,0,0,1-2.323,2.323h0m2,14.652H4V11.907H8.01Zm17-23.013H1.993A1.972,1.972,0,0,0,0,3.731V26.842a1.972,1.972,0,0,0,1.993,1.949H25.01a1.976,1.976,0,0,0,2-1.949V3.729a1.976,1.976,0,0,0-2-1.947" transform="translate(0 -1.782)" fill="#ad7036"/>
    </g>
    <g id="YouTube_full-color_icon__2017_" data-name="YouTube_full-color_icon_(2017)" transform="translate(1484.37 3682)">
      <path id="Tracé_139" data-name="Tracé 139" d="M39.025,4.65a4.836,4.836,0,0,0-3.414-3.414C33.375.373,11.715-.05,5.432,1.261A4.836,4.836,0,0,0,2.019,4.675C1.009,9.1.933,18.676,2.043,23.2a4.836,4.836,0,0,0,3.414,3.414c4.428,1.019,25.479,1.163,30.179,0A4.836,4.836,0,0,0,39.05,23.2C40.126,18.379,40.2,9.4,39.025,4.65Z" transform="translate(-1.236 -0.427)" fill="#ad7036"/>
      <path id="Tracé_140" data-name="Tracé 140" d="M74.293,37.388,64.2,31.6V43.177Z" transform="translate(-48.624 -23.889)" fill="#fff6ec"/>
    </g>
    <g id="Facebook_F_icon" transform="translate(1427.361 3682)">
      <path id="Blue_1_" d="M103.12,31.609a1.487,1.487,0,0,0,1.488-1.488V6.088A1.487,1.487,0,0,0,103.12,4.6H79.088A1.494,1.494,0,0,0,77.6,6.088V30.12a1.487,1.487,0,0,0,1.488,1.488H103.12Z" transform="translate(-77.6 -4.6)" fill="#ad7036"/>
      <path id="f" d="M189.424,66.432V55.972h3.511l.524-4.077h-4.035V49.3c0-1.184.325-1.981,2.023-1.981h2.159V43.657a28.533,28.533,0,0,0-3.144-.157c-3.113,0-5.24,1.9-5.24,5.387v3.008H181.7v4.077h3.522v10.46Z" transform="translate(-170.79 -39.423)" fill="#fff6ec"/>
    </g>
    <path id="Twitter-logo" d="M30.836,8.221c.02.293.02.586.02.882,0,9.011-6.86,19.4-19.4,19.4V28.5A19.306,19.306,0,0,1,1,25.443a13.872,13.872,0,0,0,1.623.1,13.694,13.694,0,0,0,8.469-2.925,6.828,6.828,0,0,1-6.371-4.736A6.8,6.8,0,0,0,7.8,17.764,6.82,6.82,0,0,1,2.33,11.08v-.086a6.776,6.776,0,0,0,3.1.853A6.828,6.828,0,0,1,3.314,2.741,19.355,19.355,0,0,0,17.369,9.866,6.826,6.826,0,0,1,28.99,3.646a13.684,13.684,0,0,0,4.331-1.656,6.845,6.845,0,0,1-3,3.772,13.562,13.562,0,0,0,3.916-1.074,13.854,13.854,0,0,1-3.4,3.533Z" transform="translate(1363.122 3680.503)" fill="#ad7036"/>
    <g id="Instagram_logo_2016" transform="translate(1307.113 3682)">
      <path id="Tracé_138" data-name="Tracé 138" d="M31.506,18c-3.668,0-4.128.016-5.568.082a9.91,9.91,0,0,0-3.278.627,6.908,6.908,0,0,0-3.951,3.949,9.864,9.864,0,0,0-.627,3.278c-.064,1.44-.081,1.9-.081,5.569s.016,4.126.082,5.567a9.925,9.925,0,0,0,.627,3.278A6.911,6.911,0,0,0,22.658,44.3a9.919,9.919,0,0,0,3.278.627c1.44.066,1.9.082,5.568.082s4.127-.016,5.567-.082A9.924,9.924,0,0,0,40.35,44.3,6.919,6.919,0,0,0,44.3,40.349a10.009,10.009,0,0,0,.627-3.278c.065-1.44.082-1.9.082-5.567s-.017-4.128-.082-5.568a10,10,0,0,0-.627-3.278,6.909,6.909,0,0,0-3.95-3.949,9.941,9.941,0,0,0-3.28-.627C35.629,18.016,35.17,18,31.5,18Zm-1.211,2.434h1.211c3.606,0,4.033.013,5.457.078a7.477,7.477,0,0,1,2.507.465,4.475,4.475,0,0,1,2.562,2.563,7.462,7.462,0,0,1,.465,2.507c.065,1.424.079,1.851.079,5.455s-.014,4.032-.079,5.455a7.469,7.469,0,0,1-.465,2.507,4.478,4.478,0,0,1-2.562,2.561,7.449,7.449,0,0,1-2.507.465c-1.424.065-1.851.079-5.457.079s-4.033-.014-5.457-.079a7.491,7.491,0,0,1-2.508-.466,4.474,4.474,0,0,1-2.564-2.562,7.462,7.462,0,0,1-.465-2.507c-.065-1.424-.078-1.851-.078-5.457s.013-4.032.078-5.455a7.476,7.476,0,0,1,.465-2.507,4.475,4.475,0,0,1,2.564-2.564,7.46,7.46,0,0,1,2.508-.466c1.246-.056,1.729-.073,4.245-.076Zm8.42,2.242a1.62,1.62,0,1,0,1.621,1.62,1.62,1.62,0,0,0-1.621-1.62Zm-7.209,1.893A6.934,6.934,0,1,0,38.44,31.5a6.935,6.935,0,0,0-6.934-6.935Zm0,2.434A4.5,4.5,0,1,1,27,31.5,4.5,4.5,0,0,1,31.506,27Z" transform="translate(-18 -18)" fill="#ad7036"/>
    </g>
  </g>
</svg>
